<svg xmlns="http://www.w3.org/2000/svg" width="144" height="41" fill="none"><g fill="#18212D" fill-opacity=".8" clip-path="url(#a)"><path d="M50.834 35.648c-2.648 0-4.92-.468-6.819-1.404-1.898-.935-3.45-2.152-4.653-3.65a15.455 15.455 0 0 1-2.607-4.893c-.561-1.765-.842-3.463-.842-5.094v-.882c0-1.818.28-3.61.842-5.375a14.738 14.738 0 0 1 2.688-4.813c1.203-1.444 2.727-2.594 4.572-3.45 1.872-.882 4.078-1.323 6.618-1.323 2.647 0 4.947.481 6.899 1.444 1.979.936 3.556 2.273 4.733 4.011 1.176 1.711 1.885 3.717 2.126 6.016h-5.736c-.214-1.337-.695-2.46-1.444-3.369a6.516 6.516 0 0 0-2.767-2.085c-1.123-.482-2.394-.722-3.81-.722-1.444 0-2.728.254-3.851.762a7.295 7.295 0 0 0-2.808 2.085c-.749.91-1.324 1.98-1.725 3.209-.374 1.23-.56 2.594-.56 4.091 0 1.444.186 2.781.56 4.011a9.79 9.79 0 0 0 1.765 3.249 8.053 8.053 0 0 0 2.848 2.126c1.15.508 2.473.762 3.97.762 2.193 0 4.039-.535 5.536-1.604 1.524-1.097 2.446-2.621 2.767-4.573h5.736a13.328 13.328 0 0 1-2.126 5.736c-1.15 1.738-2.727 3.128-4.733 4.171-2.005 1.043-4.399 1.564-7.18 1.564zm16.396-.762V4.764h5.575v12.043c.558-1.372 1.346-2.432 2.367-3.179 1.123-.802 2.54-1.203 4.252-1.203h.24c2.487 0 4.372.856 5.656 2.567 1.283 1.711 1.925 4.198 1.925 7.46v12.434H81.67V21.931c0-1.39-.401-2.487-1.203-3.289-.776-.802-1.805-1.203-3.09-1.203-1.363 0-2.473.454-3.328 1.363-.829.883-1.244 2.046-1.244 3.49v12.594H67.23z"/><path fill-rule="evenodd" d="M104.431 30.692v4.194h4.411V21.369c0-2.032-.388-3.677-1.163-4.933-.748-1.257-1.871-2.18-3.369-2.768-1.471-.588-3.329-.882-5.575-.882-.722 0-1.498.013-2.326.04-.803 0-1.592.026-2.367.08-.776.053-1.47.107-2.086.16V17.8a59.834 59.834 0 0 1 2.527-.12 106.384 106.384 0 0 1 5.255-.16c1.283 0 2.232.307 2.847.922.615.615.923 1.55.923 2.808v.2h-4.452c-1.925 0-3.61.254-5.054.762-1.417.508-2.527 1.27-3.329 2.287-.776 1.016-1.163 2.326-1.163 3.93 0 1.47.32 2.728.962 3.77.669 1.043 1.591 1.846 2.768 2.407 1.203.562 2.594.842 4.171.842 1.524 0 2.808-.267 3.851-.802a5.993 5.993 0 0 0 2.486-2.406 7.48 7.48 0 0 0 .683-1.547zm-.923-3.868v-2.046h-4.532c-1.284 0-2.273.321-2.969.963-.668.615-1.002 1.417-1.002 2.407 0 .989.334 1.791 1.002 2.406.695.615 1.685.923 2.968.923.776 0 1.485-.134 2.126-.401.669-.295 1.217-.776 1.645-1.445.454-.695.709-1.63.762-2.807z" clip-rule="evenodd"/><path d="M113.852 34.886v-22.1h5.575v22.1h-5.575zm9.994-22.101v22.1h5.575V22.091c0-1.418.414-2.54 1.244-3.37.855-.855 1.965-1.283 3.329-1.283 1.337 0 2.38.414 3.128 1.243.776.83 1.163 1.912 1.163 3.25v12.954h5.575V22.413c0-3.316-.668-5.803-2.005-7.46-1.337-1.685-3.302-2.528-5.896-2.528h-.24c-1.739 0-3.196.375-4.373 1.123-1.149.749-2.018 1.872-2.606 3.37-.192.479-.353.997-.482 1.556v-5.688h-4.412zM.887 25.661a3.545 3.545 0 0 0 7.088 0c0-1.435-2.08-2.785-2.08-5.316 0-2.279 2.08-3.882 2.08-5.317a3.545 3.545 0 0 0-7.088 0c0 1.435 2.08 3.038 2.08 5.317 0 2.278-2.08 3.881-2.08 5.316zM18.1 3.889a3.544 3.544 0 0 1 7.09 0c0 .616-.385 1.216-.823 1.902-.581.91-1.258 1.97-1.258 3.414 0 1.27.646 2.33 1.219 3.269.454.745.861 1.412.861 2.047 0 .085-.003.17-.009.253.006.084.01.169.01.254 0 .616-.385 1.216-.823 1.902-.581.91-1.258 1.97-1.258 3.414 0 1.27.646 2.33 1.219 3.27.454.744.861 1.412.861 2.046 0 .086-.003.17-.009.254.006.083.01.168.01.253 0 .635-.408 1.302-.862 2.047-.573.939-1.22 1.999-1.22 3.27 0 1.444.678 2.503 1.26 3.413.437.686.821 1.286.821 1.903a3.545 3.545 0 0 1-7.088 0c0-.635.407-1.303.861-2.048.572-.938 1.22-1.998 1.22-3.269 0-1.27-.648-2.33-1.22-3.269-.454-.744-.861-1.412-.861-2.047 0-.085.003-.17.009-.253a3.595 3.595 0 0 1-.01-.254c0-.634.408-1.302.862-2.047.572-.938 1.22-1.999 1.22-3.269s-.648-2.33-1.22-3.27c-.454-.744-.861-1.412-.861-2.046 0-.085.003-.17.009-.254a3.597 3.597 0 0 1-.01-.253c0-.635.408-1.302.862-2.047.572-.938 1.22-1.999 1.22-3.269s-.648-2.33-1.22-3.27c-.454-.744-.861-1.412-.861-2.046zm-5.062 30.886a3.544 3.544 0 0 1-3.544-3.544c0-.635.407-1.303.862-2.048.572-.938 1.219-1.998 1.219-3.269 0-1.27-.647-2.33-1.22-3.269-.454-.744-.86-1.412-.86-2.047 0-.085.002-.17.008-.253a3.589 3.589 0 0 1-.009-.253c0-.635.407-1.303.862-2.048.572-.938 1.219-1.998 1.219-3.269 0-1.27-.647-2.33-1.22-3.269-.454-.745-.86-1.412-.86-2.047a3.544 3.544 0 0 1 7.088 0c0 .616-.384 1.217-.822 1.902-.582.91-1.259 1.97-1.259 3.414 0 1.27.647 2.331 1.22 3.27.453.744.86 1.412.86 2.047 0 .085-.002.17-.008.253.006.083.009.168.009.253 0 .635-.408 1.303-.862 2.047-.572.939-1.219 2-1.219 3.27 0 1.444.677 2.503 1.259 3.414.438.685.822 1.285.822 1.902a3.545 3.545 0 0 1-3.545 3.544z"/></g><defs><clipPath id="a"><path fill="#fff" d="M0 .344h144v40H0z"/></clipPath></defs></svg>