<svg xmlns="http://www.w3.org/2000/svg" width="190" height="41" fill="none"><g clip-path="url(#a)"><mask id="b" width="190" height="41" x="0" y="0" maskUnits="userSpaceOnUse" style="mask-type:luminance"><path fill="#fff" d="M189.292.344H.356v40h188.936v-40z"/></mask><g fill="#18212D" fill-opacity=".8" mask="url(#b)"><path d="m.356 26.908 13.46-5.99 7.747 4.492 1.565 14.74-9.547-.078 1.409-10.248-1.643-.945-8.06 6.305-4.93-8.276zm22.07-2.129 11.894 8.749 4.696-8.434-9.547-3.862V19.34l9.547-3.941-4.696-8.356-11.894 8.75v8.986zm-.863-9.695L23.128.344l-9.547.158 1.409 10.247-1.643.946-8.139-6.306-4.852 8.197 13.46 5.991 7.747-4.493zm49.302 3.396v13.808h5.138V14.69H68.52v3.79h2.345zm-.161-6.263c.47.492 1.188.738 2.152.738.963 0 1.67-.246 2.119-.738.47-.514.706-1.157.706-1.927 0-.792-.235-1.435-.706-1.927-.45-.514-1.156-.77-2.12-.77-.963 0-1.68.256-2.151.77-.45.492-.675 1.135-.675 1.927 0 .77.225 1.413.675 1.927zM52.977 31.904c1.456.663 3.243.995 5.363.995 1.99 0 3.703-.31 5.138-.931 1.434-.62 2.537-1.488 3.307-2.601.793-1.135 1.189-2.452 1.189-3.95 0-1.456-.375-2.687-1.124-3.694-.728-1.027-1.745-1.83-3.051-2.408-1.306-.6-2.815-.974-4.528-1.124l-1.798-.16c-1.07-.086-1.842-.375-2.313-.868a2.429 2.429 0 0 1-.706-1.734c0-.514.129-.985.385-1.413.257-.45.642-.803 1.156-1.06.536-.256 1.189-.385 1.96-.385.813 0 1.487.15 2.022.45.118.063.23.13.336.203l.025.018a2.901 2.901 0 0 1 .892.967c.278.47.418.995.418 1.574h5.137c0-1.542-.353-2.88-1.06-4.015-.706-1.156-1.722-2.044-3.05-2.665-1.306-.643-2.88-.964-4.72-.964-1.756 0-3.276.3-4.56.9-1.285.578-2.292 1.412-3.02 2.504-.706 1.092-1.06 2.388-1.06 3.886 0 2.077.697 3.747 2.088 5.01 1.392 1.263 3.255 1.991 5.588 2.184l1.766.16c1.434.129 2.473.418 3.115.867.642.428.964 1.017.964 1.767a2.666 2.666 0 0 1-.513 1.606c-.344.449-.847.802-1.51 1.06-.664.256-1.488.384-2.474.384-1.091 0-1.98-.15-2.665-.45-.685-.32-1.199-.738-1.541-1.252a3.092 3.092 0 0 1-.482-1.67h-5.106c0 1.52.374 2.87 1.124 4.047.749 1.156 1.852 2.077 3.308 2.762zm34.489.609c-1.777 0-3.211-.214-4.303-.642-1.092-.45-1.895-1.188-2.409-2.216-.492-1.05-.738-2.462-.738-4.24v-6.968H77.35V14.69h2.665V9.937H84.8v4.753h5.138v3.757H84.8v7.162c0 .835.214 1.477.642 1.926.45.428 1.081.643 1.895.643h2.601v4.335h-2.473z"/><path fill-rule="evenodd" d="M96.126 32.127c1.156.514 2.484.77 3.982.77 1.477 0 2.783-.256 3.918-.77 1.135-.514 2.077-1.231 2.826-2.152a7.402 7.402 0 0 0 1.509-3.147h-4.72c-.214.535-.621.985-1.22 1.349-.6.364-1.371.546-2.313.546a5.47 5.47 0 0 1-1.564-.207 3.5 3.5 0 0 1-.941-.436c-.642-.428-1.113-1.027-1.413-1.798a6.408 6.408 0 0 1-.214-.688 7.504 7.504 0 0 1-.148-.757h12.855v-1.734c0-1.606-.343-3.083-1.028-4.432a8.231 8.231 0 0 0-2.987-3.308c-1.284-.856-2.869-1.284-4.753-1.284-1.434 0-2.719.256-3.853.77-1.114.493-2.045 1.167-2.794 2.023a9.351 9.351 0 0 0-1.734 2.923 9.873 9.873 0 0 0-.578 3.372v.642c0 1.135.192 2.248.578 3.34a9.86 9.86 0 0 0 1.734 2.922c.77.857 1.723 1.542 2.858 2.056zm-.21-10.466c.015-.068.03-.135.047-.2a5.418 5.418 0 0 1 .26-.799c.32-.792.792-1.392 1.412-1.798a3.5 3.5 0 0 1 .754-.371 4.58 4.58 0 0 1 1.526-.24c.878 0 1.606.204 2.184.61.6.386 1.049.953 1.349 1.703a5.434 5.434 0 0 1 .168.49 6.135 6.135 0 0 1 .187.859h-7.935a6.71 6.71 0 0 1 .049-.254z" clip-rule="evenodd"/><path d="M110.803 32.29v-17.6h4.078v4.433c.055-.263.119-.516.19-.759.059-.204.125-.401.196-.59.45-1.2 1.124-2.098 2.023-2.698.899-.62 2.001-.931 3.308-.931h.224c1.328 0 2.43.31 3.308.931.899.6 1.574 1.499 2.023 2.698l.035.09.031.083c.02-.058.042-.116.063-.173.471-1.2 1.156-2.098 2.055-2.698.899-.62 2.002-.931 3.308-.931h.225c1.327 0 2.44.31 3.34.931.92.6 1.617 1.499 2.087 2.698.471 1.199.707 2.697.707 4.496v10.02h-5.138V21.98c0-.963-.257-1.744-.771-2.343-.493-.6-1.2-.9-2.12-.9-.92 0-1.649.31-2.184.932-.535.599-.803 1.402-.803 2.408V32.29h-5.17V21.981c0-.964-.257-1.745-.771-2.345-.492-.6-1.188-.899-2.087-.899-.942 0-1.681.31-2.216.932-.535.599-.803 1.402-.803 2.408V32.29h-5.138z"/><path fill-rule="evenodd" d="M151.729 28.899v3.39h4.077V21.5c0-1.627-.321-2.954-.963-3.982-.642-1.05-1.584-1.83-2.826-2.344-1.22-.514-2.73-.771-4.527-.771a61.085 61.085 0 0 0-1.992.032c-.706.021-1.391.054-2.055.096l-.507.035a82.622 82.622 0 0 0-1.227.094v4.335a186.26 186.26 0 0 1 2.893-.161 89.704 89.704 0 0 1 3.562-.096c.942 0 1.627.225 2.055.675.428.45.642 1.124.642 2.023v.064h-3.179c-1.564 0-2.944.204-4.143.61-1.199.386-2.13.996-2.794 1.83-.664.814-.995 1.863-.995 3.148 0 1.178.267 2.195.803 3.051.535.835 1.273 1.477 2.216 1.927.963.45 2.076.674 3.339.674 1.221 0 2.248-.225 3.083-.674a4.793 4.793 0 0 0 1.991-1.927 5.911 5.911 0 0 0 .506-1.115l.041-.124zm-.868-3.129v-1.413h-3.211c-.9 0-1.595.225-2.087.675-.472.428-.707 1.017-.707 1.766 0 .353.058.673.176.962.118.29.295.547.531.772.492.428 1.187.642 2.087.642.171 0 .337-.008.496-.025a3.88 3.88 0 0 0 .379-.058c.237-.048.458-.116.666-.206.471-.214.857-.567 1.156-1.06.3-.492.471-1.177.514-2.055z" clip-rule="evenodd"/><path d="M158.882 32.289V14.69h4.079v5.81c.196-1.658.688-2.995 1.477-4.01 1.071-1.35 2.612-2.024 4.624-2.024h.675v4.432h-1.285c-1.413 0-2.505.385-3.275 1.156-.771.75-1.156 1.841-1.156 3.276v8.96h-5.139zm17.37-8.221h1.702l5.556 8.221h5.78l-7.044-10.096 5.792-7.502h-5.395l-6.391 8.368V8.846h-5.138V32.29h5.138v-8.22z"/></g></g><defs><clipPath id="a"><path fill="#fff" d="M0 .344h190v40H0z"/></clipPath></defs></svg>