<svg xmlns="http://www.w3.org/2000/svg" width="204" height="41" fill="none"><g fill="#18212D" fill-opacity=".8" clip-path="url(#a)"><path d="M53.958 27.15h-8.03l-1.33 3.842h-4.246l7.25-20.193h4.709l7.251 20.193h-4.276l-1.328-3.843zm-1.098-3.236-2.917-8.435-2.919 8.435h5.836zm23.367-8.926V30.99h-4.073v-2.02c-.52.693-1.203 1.242-2.051 1.646-.828.386-1.733.578-2.715.578-1.252 0-2.36-.26-3.322-.78-.964-.54-1.724-1.32-2.283-2.34-.54-1.04-.808-2.273-.808-3.698v-9.388h4.044v8.81c0 1.272.317 2.254.953 2.947.635.674 1.502 1.011 2.6 1.011 1.117 0 1.993-.337 2.629-1.01.635-.694.953-1.676.953-2.947v-8.811h4.073zm7.543 3.322v7.742c0 .54.125.934.375 1.185.27.23.713.346 1.329.346h1.878v3.409H84.81c-3.409 0-5.114-1.656-5.114-4.969V18.31H77.79v-3.322h1.906v-3.957h4.073v3.957h3.583v3.322h-3.583zm12.441 12.942c-1.54 0-2.927-.337-4.16-1.011a7.585 7.585 0 0 1-2.917-2.918c-.694-1.252-1.04-2.696-1.04-4.333s.356-3.082 1.068-4.333a7.53 7.53 0 0 1 2.976-2.89c1.252-.692 2.648-1.039 4.189-1.039 1.54 0 2.937.347 4.188 1.04a7.335 7.335 0 0 1 2.947 2.889c.731 1.251 1.097 2.696 1.097 4.333s-.375 3.081-1.126 4.333a7.683 7.683 0 0 1-3.004 2.918c-1.252.674-2.658 1.01-4.218 1.01zm0-3.525a4.21 4.21 0 0 0 2.051-.52c.655-.366 1.175-.905 1.56-1.617.385-.713.577-1.58.577-2.6 0-1.522-.404-2.687-1.213-3.496-.789-.828-1.762-1.242-2.917-1.242-1.156 0-2.128.414-2.918 1.242-.77.81-1.156 1.974-1.156 3.496 0 1.521.376 2.696 1.128 3.524.77.809 1.733 1.213 2.888 1.213zm30.035-12.971c1.965 0 3.544.607 4.738 1.82 1.213 1.194 1.82 2.87 1.82 5.027v9.388h-4.044v-8.84c0-1.251-.318-2.204-.954-2.86-.635-.673-1.502-1.01-2.6-1.01-1.097 0-1.974.337-2.628 1.01-.636.655-.953 1.609-.953 2.86v8.84h-4.045v-8.84c0-1.251-.318-2.204-.953-2.86-.636-.673-1.502-1.01-2.6-1.01-1.117 0-2.003.337-2.658 1.01-.635.655-.953 1.609-.953 2.86v8.84h-4.044V14.987h4.044v1.936a5.407 5.407 0 0 1 1.993-1.589 6.361 6.361 0 0 1 2.716-.578c1.252 0 2.368.27 3.351.81a5.476 5.476 0 0 1 2.282 2.252c.52-.924 1.271-1.666 2.253-2.224a6.538 6.538 0 0 1 3.235-.838zm8.199 8.176c0-1.618.318-3.052.953-4.304.655-1.252 1.531-2.215 2.629-2.889 1.117-.674 2.359-1.011 3.727-1.011 1.194 0 2.234.24 3.119.722.906.482 1.628 1.088 2.167 1.82v-2.282h4.073v16.004h-4.073v-2.34c-.52.75-1.242 1.377-2.167 1.877-.905.482-1.954.723-3.148.723a6.875 6.875 0 0 1-3.698-1.04c-1.098-.694-1.974-1.666-2.629-2.918-.635-1.27-.953-2.725-.953-4.362zm12.595.058c0-.982-.193-1.82-.577-2.513-.386-.713-.906-1.252-1.56-1.618a4.094 4.094 0 0 0-2.109-.578c-.751 0-1.445.183-2.08.549-.636.366-1.156.905-1.56 1.618-.385.693-.578 1.521-.578 2.484 0 .963.193 1.81.578 2.542.404.713.924 1.261 1.56 1.647a4.035 4.035 0 0 0 2.08.578c.75 0 1.454-.183 2.109-.55a4.211 4.211 0 0 0 1.56-1.617c.384-.713.577-1.56.577-2.542zm11.577-4.68v7.743c0 .539.125.934.376 1.184.269.231.712.347 1.328.347h1.878v3.408h-2.542c-3.409 0-5.113-1.656-5.113-4.968V18.31h-1.907v-3.322h1.907V11.03h4.073v3.957h3.582v3.323h-3.582zm7.387-5.228c-.712 0-1.309-.222-1.791-.665-.462-.462-.693-1.03-.693-1.704 0-.674.231-1.232.693-1.675.482-.463 1.079-.694 1.791-.694.713 0 1.3.231 1.762.694.482.442.723 1.001.723 1.675 0 .674-.241 1.242-.723 1.704-.462.443-1.049.665-1.762.665zm1.993 1.906v16.004h-4.044V14.988h4.044zm9.948 16.264c-1.54 0-2.927-.337-4.16-1.011a7.583 7.583 0 0 1-2.917-2.918c-.694-1.252-1.04-2.696-1.04-4.333s.356-3.082 1.068-4.333a7.528 7.528 0 0 1 2.976-2.89c1.252-.692 2.648-1.039 4.189-1.039s2.937.347 4.188 1.04a7.329 7.329 0 0 1 2.947 2.889c.732 1.251 1.098 2.696 1.098 4.333s-.376 3.081-1.127 4.333a7.677 7.677 0 0 1-3.004 2.918c-1.252.674-2.658 1.01-4.218 1.01zm0-3.525a4.21 4.21 0 0 0 2.051-.52c.655-.366 1.175-.905 1.56-1.617.385-.713.578-1.58.578-2.6 0-1.521-.405-2.687-1.214-3.496-.789-.828-1.762-1.242-2.917-1.242-1.155 0-2.128.414-2.918 1.242-.77.81-1.155 1.974-1.155 3.496 0 1.521.375 2.696 1.126 3.524.771.809 1.734 1.213 2.889 1.213zm19.027-12.971c1.907 0 3.448.607 4.622 1.82 1.175 1.194 1.762 2.87 1.762 5.027v9.388h-4.044v-8.84c0-1.27-.318-2.243-.953-2.917-.636-.693-1.503-1.04-2.6-1.04-1.117 0-2.003.347-2.658 1.04-.635.674-.953 1.647-.953 2.918v8.84h-4.044V14.986h4.044v1.994a5.481 5.481 0 0 1 2.051-1.618 6.353 6.353 0 0 1 2.773-.607z"/><path fill-rule="evenodd" d="M16.19 11.893a8.166 8.166 0 0 0-8.165 8.165v.572H.356v-.572c0-8.745 7.09-15.834 15.835-15.834v7.669zm6.452 8.737v-.57h7.669v.57c0 8.746-7.09 15.835-15.834 15.835v-7.669a8.166 8.166 0 0 0 8.165-8.166z" clip-rule="evenodd"/><path fill-rule="evenodd" d="M15.905.344v15.143l13.143-7.428L15.905.344zm-1.142 40V25.201L1.62 32.63l13.143 7.714z" clip-rule="evenodd"/></g><defs><clipPath id="a"><path fill="#fff" d="M0 .344h204v40H0z"/></clipPath></defs></svg>