<svg xmlns="http://www.w3.org/2000/svg" width="130" height="41" fill="none"><g fill="#18212D" fill-opacity=".8" clip-path="url(#a)"><path d="M25.157 31.192a8.424 8.424 0 0 1-2.417 6.653 8.424 8.424 0 0 1-6.631 2.475 8.426 8.426 0 0 1 2.417-6.652 8.425 8.425 0 0 1 6.63-2.476zm-4.309-3.303a12.275 12.275 0 0 1-9.551 3.89 12.269 12.269 0 0 1-9.156-4.744 12.275 12.275 0 0 1 9.55-3.89 12.273 12.273 0 0 1 9.157 4.744zM.745 19.715c.496-5.947 3.496-11.647 8.722-15.402C14.693.558 21.053-.467 26.847.96c-.496 5.947-3.497 11.648-8.723 15.402C12.9 20.117 6.54 21.142.745 19.715zm96.332-7.292v3.621h2.173v18.932h3.862V16.044h5.07v-3.621h-5.07V8.717c0-1.062.096-1.915.29-2.559.193-.643.45-1.094.772-1.352a1.92 1.92 0 0 1 1.256-.434c.386 0 .788.08 1.207.241.45.13.836.467 1.158 1.014l2.125-3.186c-.225-.322-.547-.628-.966-.918a5.2 5.2 0 0 0-1.4-.724c-.547-.193-1.175-.29-1.883-.29-1.352 0-2.511.29-3.477.87-.933.547-1.657 1.383-2.172 2.51-.515 1.127-.772 2.575-.772 4.346v4.188h-2.173zM36.419 5.04v29.935H53.8v-3.863H40.523V5.04h-4.104z"/><path fill-rule="evenodd" d="M64.095 35.459c2.382 0 4.442-.467 6.18-1.4 1.77-.966 3.235-2.383 4.394-4.25l-3.138-1.98c-.805 1.353-1.787 2.367-2.945 3.043-1.16.643-2.495.965-4.008.965s-2.8-.322-3.863-.965c-1.062-.644-1.867-1.578-2.414-2.8-.416-.93-.674-2.009-.773-3.236h17.48v-.434c.031-.258.047-.5.047-.725 0-2.35-.418-4.377-1.255-6.083-.837-1.706-2.044-3.01-3.621-3.911-1.545-.934-3.412-1.4-5.601-1.4s-4.12.482-5.794 1.448c-1.642.966-2.929 2.318-3.862 4.056-.902 1.738-1.353 3.766-1.353 6.084 0 2.285.435 4.297 1.304 6.035.901 1.738 2.14 3.106 3.718 4.104 1.61.966 3.444 1.449 5.504 1.449zm-5.746-16.127a8.692 8.692 0 0 0-.68 2.221h13.164c-.074-1.058-.34-1.991-.8-2.8a5.671 5.671 0 0 0-2.172-2.27c-.933-.547-2.028-.82-3.283-.82-1.48 0-2.752.321-3.814.965-1.03.612-1.835 1.513-2.415 2.704zm32.428 3.467c-.606-.399-1.38-.75-2.317-1.053-1.062-.386-2.398-.58-4.008-.58-2.736 0-4.876.66-6.421 1.98-1.513 1.288-2.27 3.01-2.27 5.167 0 1.512.354 2.8 1.062 3.862a7.147 7.147 0 0 0 2.801 2.463 9.027 9.027 0 0 0 3.814.82c1.223 0 2.447-.225 3.67-.675 1.256-.45 2.302-1.143 3.138-2.077.2-.215.377-.442.531-.683v2.953h3.863V19.042c0-1.448-.37-2.671-1.11-3.67-.709-.997-1.722-1.754-3.042-2.268-1.288-.548-2.8-.821-4.539-.821-2.06 0-3.83.305-5.31.917-1.45.612-2.592 1.223-3.43 1.835l1.884 2.848c.354-.257.837-.563 1.449-.917.611-.354 1.351-.66 2.22-.917.902-.258 1.9-.387 2.994-.387.676 0 1.32.065 1.931.194a4.715 4.715 0 0 1 1.594.627c.482.29.853.692 1.11 1.207.258.483.386 1.11.386 1.883V22.8zm-10.525 3.244c-.387.58-.58 1.272-.58 2.076 0 .837.193 1.562.58 2.173a4.013 4.013 0 0 0 1.69 1.4c.74.29 1.577.435 2.51.435 1.191 0 2.253-.242 3.187-.724.966-.483 1.722-1.16 2.27-2.028.579-.902.868-1.932.868-3.09v-.836c-.618-.3-1.246-.537-1.883-.71a13.322 13.322 0 0 0-3.814-.53c-1.255 0-2.285.16-3.09.482-.772.322-1.352.773-1.738 1.352zm44.689 8.015c-1.738.934-3.798 1.4-6.179 1.4-2.061 0-3.896-.482-5.505-1.448-1.577-.998-2.816-2.366-3.718-4.104-.869-1.738-1.303-3.75-1.303-6.035 0-2.318.451-4.346 1.351-6.084.934-1.738 2.221-3.09 3.863-4.056 1.674-.966 3.605-1.448 5.794-1.448 2.189 0 4.056.466 5.601 1.4 1.577.901 2.784 2.205 3.621 3.91.837 1.707 1.255 3.735 1.255 6.084a5.9 5.9 0 0 1-.048.725v.434h-17.479c.1 1.227.358 2.306.774 3.235.547 1.223 1.351 2.157 2.413 2.8 1.063.644 2.35.966 3.863.966s2.849-.322 4.008-.965c1.158-.676 2.14-1.69 2.945-3.042l3.138 1.98c-1.159 1.866-2.623 3.283-4.394 4.248zm-12.605-12.505a8.684 8.684 0 0 1 .68-2.221c.579-1.191 1.384-2.092 2.414-2.704 1.062-.644 2.334-.966 3.814-.966 1.256 0 2.35.274 3.284.821a5.673 5.673 0 0 1 2.172 2.27c.458.809.725 1.742.8 2.8h-13.164z" clip-rule="evenodd"/></g><defs><clipPath id="a"><path fill="#fff" d="M0 .344h130v40H0z"/></clipPath></defs></svg>