<svg xmlns="http://www.w3.org/2000/svg" width="154" height="41" fill="none"><g fill="#18212D" fill-opacity=".8" clip-path="url(#a)"><path d="M57.538 32.729c-2.417 0-4.528-.55-6.334-1.648-1.806-1.098-3.21-2.624-4.21-4.577-1.001-1.977-1.502-4.27-1.502-6.883 0-2.636.513-4.954 1.538-6.956 1.05-2.026 2.526-3.6 4.43-4.723 1.928-1.147 4.21-1.72 6.847-1.72 3.002 0 5.491.72 7.469 2.16 1.977 1.44 3.258 3.429 3.844 5.967h-5.236c-.39-1.196-1.098-2.123-2.123-2.782-1.026-.684-2.343-1.026-3.954-1.026-2.563 0-4.54.818-5.932 2.454-1.391 1.61-2.087 3.832-2.087 6.663 0 2.831.684 5.028 2.05 6.59 1.392 1.538 3.272 2.307 5.64 2.307 2.318 0 4.063-.623 5.235-1.868 1.196-1.269 1.916-2.928 2.16-4.979h-6.48v-3.514h11.203v14.095h-4.32l-.367-3.368c-.83 1.22-1.867 2.16-3.112 2.82-1.244.658-2.83.988-4.76.988zm15.174-.439V5.93h4.686v26.36h-4.686zm16.358.44c-1.758 0-3.345-.403-4.76-1.209a9.091 9.091 0 0 1-3.332-3.331c-.805-1.44-1.209-3.1-1.209-4.98 0-1.88.415-3.527 1.245-4.943.83-1.44 1.94-2.562 3.332-3.368 1.416-.805 3.002-1.208 4.76-1.208 1.733 0 3.295.403 4.686 1.208a8.667 8.667 0 0 1 3.332 3.368c.83 1.416 1.245 3.064 1.245 4.943 0 1.88-.415 3.54-1.245 4.98a8.739 8.739 0 0 1-3.332 3.331c-1.416.806-2.99 1.208-4.723 1.208zm0-4.064c1.22 0 2.282-.452 3.184-1.355.903-.928 1.355-2.295 1.355-4.1 0-1.807-.451-3.162-1.355-4.065-.903-.927-1.952-1.391-3.148-1.391-1.245 0-2.319.464-3.222 1.391-.879.903-1.318 2.258-1.318 4.064s.44 3.173 1.318 4.1c.903.904 1.965 1.356 3.185 1.356zm19.165 4.064c-1.611 0-3.026-.257-4.247-.77-1.22-.537-2.197-1.268-2.929-2.196-.732-.928-1.172-2.002-1.318-3.222h4.723c.147.708.537 1.318 1.172 1.83.658.489 1.501.733 2.526.733s1.769-.207 2.233-.622c.488-.415.733-.891.733-1.428 0-.782-.342-1.306-1.026-1.575-.683-.293-1.635-.573-2.856-.842a31.236 31.236 0 0 1-2.379-.622c-.806-.244-1.55-.55-2.233-.916a5.154 5.154 0 0 1-1.611-1.464c-.415-.61-.623-1.355-.623-2.234 0-1.61.635-2.965 1.904-4.064 1.294-1.098 3.1-1.647 5.418-1.647 2.148 0 3.857.5 5.126 1.501 1.294 1 2.063 2.38 2.307 4.137h-4.43c-.269-1.342-1.282-2.014-3.039-2.014-.879 0-1.562.171-2.05.513-.464.342-.696.769-.696 1.282 0 .537.354.964 1.062 1.281.707.317 1.647.61 2.819.879 1.269.293 2.429.622 3.478.988 1.074.342 1.928.867 2.563 1.575.635.683.952 1.672.952 2.965.025 1.123-.268 2.136-.879 3.039-.61.903-1.489 1.61-2.636 2.123-1.147.513-2.502.77-4.064.77zm17.405 0c-1.611 0-3.027-.257-4.247-.77-1.221-.537-2.197-1.268-2.93-2.196-.732-.928-1.171-2.002-1.317-3.222h4.723c.146.708.537 1.318 1.171 1.83.659.489 1.501.733 2.527.733 1.025 0 1.769-.207 2.233-.622.488-.415.732-.891.732-1.428 0-.782-.342-1.306-1.025-1.575-.683-.293-1.635-.573-2.856-.842a31.38 31.38 0 0 1-2.38-.622 12.23 12.23 0 0 1-2.233-.916 5.176 5.176 0 0 1-1.611-1.464c-.415-.61-.623-1.355-.623-2.233 0-1.611.635-2.966 1.904-4.064 1.294-1.099 3.1-1.648 5.419-1.648 2.148 0 3.857.5 5.126 1.501 1.293 1 2.062 2.38 2.306 4.137h-4.429c-.269-1.342-1.282-2.014-3.039-2.014-.879 0-1.563.171-2.051.513-.464.342-.695.769-.695 1.282 0 .537.353.964 1.061 1.281.708.317 1.648.61 2.82.879a33.33 33.33 0 0 1 3.477.988c1.075.342 1.929.867 2.563 1.575.635.683.952 1.672.952 2.965.025 1.123-.268 2.136-.878 3.039-.611.903-1.489 1.611-2.637 2.123-1.147.513-2.501.77-4.063.77zm11.204 7.614 4.21-9.263h-1.098L132.89 14.13h5.089l5.089 12.778 5.309-12.778h4.979l-11.533 26.215h-4.979zM10.998 29.358l18.471-18.472-3.037-3.038L7.96 26.32l3.038 3.038zM18.3 10.886l-7.302 7.303L7.96 15.15l7.303-7.303 3.037 3.038zm3.866 18.47 7.302-7.302-3.037-3.038-7.303 7.303 3.038 3.037z"/><path fill-rule="evenodd" d="M.887 36.43V.343h36.085V36.43H.887zM5.183 4.64h27.493v27.493H5.183V4.64z" clip-rule="evenodd"/></g><defs><clipPath id="a"><path fill="#fff" d="M0 .344h154v40H0z"/></clipPath></defs></svg>