<svg xmlns="http://www.w3.org/2000/svg" width="152" height="41" fill="none"><g fill="#18212D" fill-opacity=".8" clip-path="url(#a)"><path fill-rule="evenodd" d="M30.127 7.374h-16.57V.344h23.6v23.599h-7.03V7.373z" clip-rule="evenodd"/><path fill-rule="evenodd" d="M17.184 21.36a6.527 6.527 0 0 0-3.626-1.1v-7.029A13.557 13.557 0 1 1 0 26.788h7.03a6.527 6.527 0 1 0 10.153-5.428z" clip-rule="evenodd"/><path d="M48.202 34.838V5.346h10.912c2.36 0 4.312.393 5.857 1.18 1.544.786 2.696 1.868 3.454 3.244.759 1.376 1.138 2.921 1.138 4.634 0 1.63-.365 3.132-1.096 4.508-.73 1.349-1.868 2.444-3.412 3.287-1.545.814-3.525 1.221-5.94 1.221h-5.52v11.418h-5.393zm5.393-15.8h5.182c1.882 0 3.23-.406 4.045-1.221.842-.843 1.264-1.98 1.264-3.413 0-1.46-.422-2.598-1.264-3.412-.815-.843-2.163-1.264-4.045-1.264h-5.182v9.31zm27.049 16.305c-2.107 0-3.974-.45-5.603-1.348a9.756 9.756 0 0 1-3.834-3.791c-.927-1.63-1.39-3.511-1.39-5.646 0-2.163.449-4.087 1.348-5.772.926-1.685 2.19-2.992 3.792-3.918 1.628-.955 3.538-1.433 5.73-1.433 2.05 0 3.861.45 5.434 1.348a9.49 9.49 0 0 1 3.666 3.708c.899 1.545 1.348 3.272 1.348 5.182 0 .31-.014.632-.042.969 0 .337-.014.688-.042 1.053H75.167c.112 1.63.674 2.907 1.685 3.834 1.04.927 2.29 1.39 3.75 1.39 1.096 0 2.008-.238 2.738-.715a4.66 4.66 0 0 0 1.686-1.938h5.477a9.975 9.975 0 0 1-1.98 3.623c-.9 1.067-2.023 1.91-3.37 2.528-1.32.618-2.823.926-4.509.926zm.042-17.526c-1.32 0-2.485.379-3.497 1.137-1.01.73-1.657 1.854-1.938 3.37h10.407c-.085-1.375-.59-2.47-1.517-3.285-.927-.815-2.078-1.222-3.455-1.222zm12.878 17.021V13.941h4.761l.421 3.539a7.389 7.389 0 0 1 2.781-2.95c1.236-.73 2.683-1.095 4.34-1.095 2.584 0 4.592.815 6.024 2.444 1.433 1.629 2.149 4.016 2.149 7.162v11.797h-5.393V23.547c0-1.798-.365-3.174-1.095-4.13-.73-.954-1.868-1.432-3.413-1.432-1.516 0-2.766.534-3.749 1.601-.955 1.068-1.433 2.556-1.433 4.466v10.786h-5.392zm32.838-.001c-2.191 0-3.946-.534-5.266-1.601-1.32-1.067-1.98-2.963-1.98-5.688v-9.1h-3.582V13.94h3.582l.632-5.604h4.76v5.604h5.646v4.508h-5.646v9.142c0 1.012.211 1.714.632 2.107.45.365 1.208.547 2.275.547h2.613v4.593h-3.666zm13.52.506c-1.798 0-3.273-.28-4.425-.842-1.151-.59-2.008-1.362-2.57-2.318a6.123 6.123 0 0 1-.842-3.16c0-1.937.758-3.51 2.275-4.718 1.517-1.208 3.792-1.812 6.825-1.812h5.309v-.505c0-1.433-.407-2.486-1.222-3.16-.815-.674-1.826-1.011-3.033-1.011-1.096 0-2.051.267-2.866.8-.814.506-1.32 1.264-1.516 2.275h-5.267c.141-1.516.647-2.836 1.517-3.96.899-1.123 2.051-1.98 3.455-2.57 1.404-.618 2.977-.927 4.719-.927 2.977 0 5.322.745 7.036 2.233 1.713 1.489 2.57 3.595 2.57 6.32v12.85h-4.593l-.505-3.37c-.618 1.123-1.489 2.05-2.612 2.78-1.096.73-2.514 1.095-4.255 1.095zm1.221-4.213c1.545 0 2.739-.505 3.581-1.516.871-1.012 1.419-2.262 1.643-3.75h-4.592c-1.433 0-2.457.267-3.075.8-.618.506-.927 1.138-.927 1.896 0 .815.309 1.447.927 1.896.618.45 1.432.674 2.443.674z"/></g><defs><clipPath id="a"><path fill="#fff" d="M0 .344h152v40H0z"/></clipPath></defs></svg>