<svg xmlns="http://www.w3.org/2000/svg" width="127" height="40" fill="none"><path fill="#101010" d="M119.199 18.154V5.924h7.722v1.433h-5.975v3.913h5.451v1.398h-5.451v4.053h5.975v1.433h-7.722Zm-6.252.209c-.897 0-1.683-.157-2.359-.472-.675-.326-1.199-.78-1.572-1.362-.373-.583-.559-1.264-.559-2.044h1.834c.012.442.117.85.315 1.222.209.361.506.653.891.874.396.21.879.314 1.45.314.489 0 .908-.081 1.258-.244.361-.163.634-.384.821-.664a1.81 1.81 0 0 0 .279-.996c0-.43-.099-.786-.297-1.066a2.207 2.207 0 0 0-.803-.68 5.955 5.955 0 0 0-1.153-.49c-.431-.14-.886-.291-1.363-.454-.967-.315-1.689-.722-2.166-1.223-.466-.5-.699-1.153-.699-1.957 0-.687.163-1.28.489-1.781a3.22 3.22 0 0 1 1.363-1.188c.594-.292 1.292-.437 2.096-.437.792 0 1.485.145 2.079.437.594.29 1.06.693 1.397 1.205.338.512.507 1.112.507 1.8h-1.852c0-.315-.081-.624-.244-.927a1.853 1.853 0 0 0-.734-.733c-.326-.198-.728-.297-1.205-.297a2.419 2.419 0 0 0-1.066.192c-.314.14-.559.343-.734.611a1.725 1.725 0 0 0-.262.961c0 .373.076.676.227.909.163.22.396.413.699.576.303.163.652.315 1.048.454.408.128.856.274 1.345.437a7.303 7.303 0 0 1 1.608.734c.477.28.85.646 1.118 1.1.279.443.419 1.014.419 1.712 0 .606-.157 1.17-.472 1.695-.314.524-.78.955-1.397 1.293-.618.326-1.386.489-2.306.489Zm-12.076 0c-1.176 0-2.213-.262-3.11-.786a5.74 5.74 0 0 1-2.096-2.219c-.5-.955-.75-2.061-.75-3.32 0-1.245.25-2.34.75-3.283.513-.955 1.211-1.7 2.097-2.237.896-.535 1.933-.803 3.109-.803 1.2 0 2.248.268 3.145.803a5.44 5.44 0 0 1 2.079 2.237c.5.943.751 2.038.751 3.284 0 1.258-.251 2.364-.751 3.319a5.467 5.467 0 0 1-2.079 2.219c-.897.524-1.945.786-3.145.786Zm.018-1.555c.838 0 1.572-.192 2.201-.576.629-.385 1.112-.932 1.45-1.643.349-.71.524-1.56.524-2.55 0-.99-.175-1.84-.524-2.55-.338-.711-.821-1.253-1.45-1.625-.629-.385-1.363-.577-2.201-.577-.839 0-1.573.192-2.201.577-.63.372-1.119.914-1.468 1.624-.35.71-.524 1.56-.524 2.55 0 .99.175 1.84.524 2.551.35.71.839 1.258 1.468 1.643.628.384 1.362.576 2.201.576Zm-15.842 1.346V5.924h4.175c.978 0 1.782.164 2.41.49.63.326 1.096.763 1.398 1.31.303.548.455 1.17.455 1.87a3.79 3.79 0 0 1-.454 1.834c-.292.547-.752.99-1.38 1.327-.63.326-1.439.49-2.429.49h-2.428v4.909h-1.747Zm1.747-6.36h2.358c.92 0 1.573-.197 1.957-.593.396-.408.594-.944.594-1.608 0-.71-.198-1.257-.594-1.642-.384-.384-1.037-.576-1.957-.576h-2.358v4.42Zm-16.692 6.36V5.924h2.061l4.14 8.264 4.123-8.263h2.079v12.229h-1.747V8.982l-3.79 7.46h-1.346l-3.773-7.443v9.155h-1.747Zm-8.079.209c-1.176 0-2.212-.262-3.11-.786a5.74 5.74 0 0 1-2.095-2.219c-.501-.955-.752-2.061-.752-3.32 0-1.245.25-2.34.752-3.283.512-.955 1.21-1.7 2.096-2.237.897-.535 1.933-.803 3.11-.803 1.2 0 2.247.268 3.144.803a5.43 5.43 0 0 1 2.079 2.237c.5.943.751 2.038.751 3.284 0 1.258-.25 2.364-.751 3.319a5.456 5.456 0 0 1-2.079 2.219c-.897.524-1.945.786-3.145.786Zm.018-1.555c.839 0 1.572-.192 2.201-.576.63-.385 1.112-.932 1.45-1.643.35-.71.524-1.56.524-2.55 0-.99-.174-1.84-.524-2.55-.338-.711-.82-1.253-1.45-1.625-.629-.385-1.363-.577-2.201-.577-.838 0-1.572.192-2.201.577-.63.372-1.118.914-1.468 1.624-.349.71-.524 1.56-.524 2.55 0 .99.175 1.84.524 2.551.35.71.839 1.258 1.468 1.643.629.384 1.362.576 2.201.576Zm-12.798 1.555c-1.2 0-2.236-.262-3.11-.786a5.45 5.45 0 0 1-2.008-2.219c-.466-.955-.7-2.061-.7-3.32 0-1.245.234-2.346.7-3.3.477-.956 1.147-1.695 2.009-2.22.873-.535 1.91-.803 3.11-.803 1.432 0 2.59.343 3.476 1.03.896.688 1.467 1.654 1.712 2.9H52.51c-.175-.722-.536-1.298-1.083-1.729-.536-.43-1.264-.646-2.184-.646-.827 0-1.543.192-2.149.576-.605.384-1.071.932-1.397 1.642-.326.71-.49 1.56-.49 2.55 0 .99.164 1.847.49 2.569.326.71.792 1.258 1.397 1.642.606.373 1.322.559 2.15.559.92 0 1.647-.204 2.183-.611.547-.42.908-.984 1.083-1.695h1.922c-.245 1.211-.816 2.16-1.712 2.848-.886.675-2.044 1.013-3.477 1.013Zm48.741 15.713V21.848h1.747v10.848h5.591v1.38h-7.338Zm-12.624 0 4.489-12.228h1.904l4.49 12.228h-1.87l-3.58-10.132-3.6 10.132H85.36Zm2.026-3.022.489-1.397h5.748l.489 1.397h-6.726Zm-7.043 3.022V23.28h-3.616v-1.432h8.996v1.432H82.09v10.796h-1.747Zm-7.148 0V21.848h1.747v12.228h-1.747Zm-8.045.21c-1.153 0-2.16-.262-3.022-.787-.862-.524-1.532-1.257-2.01-2.2-.477-.944-.716-2.045-.716-3.302 0-1.247.24-2.347.717-3.302a5.43 5.43 0 0 1 2.078-2.236c.909-.548 1.98-.821 3.215-.821 1.386 0 2.545.337 3.476 1.013.932.664 1.532 1.59 1.8 2.778h-1.992a2.677 2.677 0 0 0-1.1-1.59c-.56-.396-1.293-.594-2.202-.594-.861 0-1.613.192-2.253.576-.63.385-1.112.932-1.45 1.642-.338.711-.507 1.555-.507 2.534 0 .99.17 1.84.507 2.55.338.71.815 1.252 1.432 1.625.618.373 1.328.559 2.132.559 1.234 0 2.16-.355 2.777-1.066.63-.71.996-1.66 1.1-2.847h-3.37v-1.346h5.135v6.604h-1.59l-.157-1.87c-.28.455-.605.84-.978 1.154a3.861 3.861 0 0 1-1.275.699c-.49.15-1.072.227-1.747.227Zm-9.595-.21V21.848h1.747v12.228h-1.747Zm-12.129 0V21.848h3.756c1.42 0 2.597.25 3.529.75.931.502 1.618 1.212 2.061 2.132.454.909.681 1.992.681 3.25 0 1.257-.227 2.34-.681 3.249-.443.908-1.13 1.613-2.061 2.114-.92.489-2.097.733-3.53.733h-3.755Zm1.747-1.467h1.939c1.13 0 2.026-.186 2.69-.56a3.136 3.136 0 0 0 1.415-1.589c.291-.699.437-1.526.437-2.48 0-.967-.146-1.8-.437-2.499a3.128 3.128 0 0 0-1.415-1.607c-.664-.373-1.56-.559-2.69-.559h-1.94v9.294Z"/><circle cx="20" cy="20" r="20" fill="#101010"/><path stroke="#FCFCFC" stroke-linecap="round" stroke-linejoin="round" stroke-width="2" d="M20 7.5v5m0 15v5m-8.838-21.337L14.7 14.7m10.6 10.6 3.537 3.537M7.5 20h5m15 0h5m-21.337 8.837L14.7 25.3m10.6-10.6 3.537-3.537"/></svg>